HIERARCHY
ROOT Hips
{
	OFFSET 0.000000 0.000000 0.000000
	CHANNELS 6 Xposition Yposition Zposition Zrotation Yrotation Xrotation 
	JOINT LeftUpLeg_virtual
	{
		OFFSET 0.000000 0.000000 0.000000
		CHANNELS 3 Zrotation Yrotation Xrotation
		JOINT LeftUpLeg
		{
			OFFSET 10.205400 -3.823500 0.155100
			CHANNELS 3 Zrotation Yrotation Xrotation
			JOINT LeftLeg
			{
				OFFSET 0.708757 -12.982077 0.567790
				CHANNELS 3 Zrotation Yrotation Xrotation
				JOINT LeftFoot
				{
					OFFSET -0.708756 -10.717838 -2.184338
					CHANNELS 3 Zrotation Yrotation Xrotation
					JOINT LeftToeBase
					{
						OFFSET 0.108149 -7.191104 7.560241
						CHANNELS 3 Zrotation Yrotation Xrotation
						End Site
						{
							OFFSET 0.000000 0.000000 0.000000
						}
					}
				}
			}
		}
	}
	JOINT RightUpLeg_virtual
	{
		OFFSET 0.000000 0.000000 0.000000
		CHANNELS 3 Zrotation Yrotation Xrotation
		JOINT RightUpLeg
		{
			OFFSET -10.205400 -3.823500 0.005500
			CHANNELS 3 Zrotation Yrotation Xrotation
			JOINT RightLeg
			{
				OFFSET -0.708756 -12.982134 0.610632
				CHANNELS 3 Zrotation Yrotation Xrotation
				JOINT RightFoot
				{
					OFFSET 0.708754 -10.717769 -1.945823
					CHANNELS 3 Zrotation Yrotation Xrotation
					JOINT RightToeBase
					{
						OFFSET -0.108140 -7.191069 7.372968
						CHANNELS 3 Zrotation Yrotation Xrotation
						End Site
						{
							OFFSET 0.000000 0.000000 0.000000
						}
					}
				}
			}
		}
	}
	JOINT Spine_virtual
	{
		OFFSET 0.000000 0.000000 0.000000
		CHANNELS 3 Zrotation Yrotation Xrotation
		JOINT Spine
		{
			OFFSET 0.000000 6.876099 0.125700
			CHANNELS 3 Zrotation Yrotation Xrotation
			JOINT Spine1
			{
				OFFSET 0.000000 8.022060 0.146608
				CHANNELS 3 Zrotation Yrotation Xrotation
				JOINT Spine2
				{
					OFFSET 0.000000 9.168068 0.167552
					CHANNELS 3 Zrotation Yrotation Xrotation
					JOINT Neck_virtual
					{
						OFFSET 0.000000 0.000000 0.000000
						CHANNELS 3 Zrotation Yrotation Xrotation
						JOINT Neck
						{
							OFFSET 0.000000 10.314075 0.188496
							CHANNELS 3 Zrotation Yrotation Xrotation
							JOINT Head
							{
								OFFSET 0.000000 7.643700 -2.377400
								CHANNELS 3 Zrotation Yrotation Xrotation
								End Site
								{
									OFFSET 0.000000 0.000000 0.000000
								}
							}
						}
					}
					JOINT LeftShoulder_virtual
					{
						OFFSET 0.000000 0.000000 0.000000
						CHANNELS 3 Zrotation Yrotation Xrotation
						JOINT LeftShoulder
						{
							OFFSET 4.392200 8.824978 0.174984
							CHANNELS 3 Zrotation Yrotation Xrotation
							JOINT LeftArm
							{
								OFFSET 8.771219 -2.981674 -0.026999
								CHANNELS 3 Zrotation Yrotation Xrotation
								JOINT LeftForeArm
								{
									OFFSET 8.512804 0.000000 -0.000000
									CHANNELS 3 Zrotation Yrotation Xrotation
									JOINT LeftHand
									{
										OFFSET 18.484802 0.000000 -0.000000
										CHANNELS 3 Zrotation Yrotation Xrotation
										End Site
										{
											OFFSET 0.000000 0.000000 0.000000
										}
									}
								}
							}
						}
					}
					JOINT RightShoulder_virtual
					{
						OFFSET 0.000000 0.000000 0.000000
						CHANNELS 3 Zrotation Yrotation Xrotation
						JOINT RightShoulder
						{
							OFFSET -4.392200 8.824993 0.141379
							CHANNELS 3 Zrotation Yrotation Xrotation
							JOINT RightArm
							{
								OFFSET -8.771282 -2.981682 -0.094208
								CHANNELS 3 Zrotation Yrotation Xrotation
								JOINT RightForeArm
								{
									OFFSET -8.494598 0.000000 0.000000
									CHANNELS 3 Zrotation Yrotation Xrotation
									JOINT RightHand
									{
										OFFSET -18.483803 0.000000 0.000001
										CHANNELS 3 Zrotation Yrotation Xrotation
										End Site
										{
											OFFSET 0.000000 0.000000 0.000000
										}
									}
								}
							}
						}
					}
				}
			}
		}
	}
}
MOTION
Frames: 12
Frame Time: 0.033333
-36.757614 35.372604 81.184799 2.897915 74.365283 2.698366 -0.930947 -12.745860 15.228759 -18.884476 -1.025321 -45.615418 8.445732 4.816844 7.190812 -3.770956 -5.674539 18.841821 0.000000 0.000000 0.000000 8.506698 -14.654681 12.201692 -6.180050 -9.668953 1.211205 -1.952615 -2.507656 13.729238 -0.791932 9.449112 3.467262 0.000000 0.000000 0.000000 2.057872 -6.687714 9.585385 3.353943 13.961636 -15.439527 -3.183814 -3.144038 4.270394 0.087424 0.115147 -0.077355 -2.904557 -1.555839 5.034143 -6.490893 12.022442 19.709105 0.000000 0.000000 0.000000 -1.263770 -0.495236 1.237940 13.024782 1.265761 1.868411 -2.902668 16.111984 5.002144 -13.223489 -58.324003 14.403397 0.000000 0.000000 0.000000 -5.814590 0.156980 0.861933 22.633515 2.181174 3.049279 36.532353 -26.719567 17.919140 -14.074918 54.349666 -5.936393 0.000000 0.000000 0.000000 
-35.510693 35.175816 81.805054 3.259279 77.336934 3.156605 -0.973996 -12.968732 15.164285 -20.793797 -0.477316 -45.587725 9.304406 5.671552 5.722534 -3.175995 -6.029019 18.194490 0.000000 0.000000 0.000000 8.136733 -14.933252 12.049008 -6.609417 -9.775528 3.951369 -1.858794 -2.071115 13.656208 1.748718 11.305899 6.125896 0.000000 0.000000 0.000000 1.953148 -6.946922 9.657644 2.936991 14.440118 -15.597072 -3.518656 -3.283834 4.209268 0.113117 0.120351 -0.083658 -3.253003 -1.634901 4.836896 -4.949379 11.893803 19.819585 0.000000 0.000000 0.000000 -1.676519 -0.694963 1.001573 14.987009 2.966203 1.766983 -1.388641 15.276550 1.122846 -14.525833 -58.912396 14.273215 0.000000 0.000000 0.000000 -6.197634 0.000086 0.733262 23.080449 2.442879 2.764024 36.645024 -24.116498 19.343034 -14.807290 55.264611 -7.160712 0.000000 0.000000 0.000000 
-34.142677 34.976528 82.423218 3.878926 79.984391 3.879335 -1.287303 -13.250299 15.198380 -22.059797 0.024088 -44.736253 10.607835 5.470741 5.420464 -2.476646 -6.372216 19.317874 0.000000 0.000000 0.000000 7.833295 -15.137265 11.567622 -7.269542 -9.860399 6.443025 -1.311721 2.104857 14.102821 4.146814 12.989641 8.636787 0.000000 0.000000 0.000000 1.792188 -7.212384 9.604907 2.326805 14.771428 -15.685084 -3.780203 -3.391757 4.197285 0.061663 0.124023 -0.073896 -3.466958 -2.018582 4.663683 -3.565657 11.651386 19.928069 0.000000 0.000000 0.000000 -1.888710 -0.832736 0.748017 16.819822 4.538154 1.729597 -0.874014 15.114561 -2.830259 -15.766343 -59.668792 14.227319 0.000000 0.000000 0.000000 -6.383955 -0.121478 0.531235 23.587923 2.694457 2.379180 36.712127 -21.666236 20.878089 -15.372848 55.747198 -8.504187 0.000000 0.000000 0.000000 
-32.682934 34.805756 82.963814 4.283018 82.608242 4.160896 -1.707173 -13.670648 15.360926 -22.339988 0.365742 -43.230139 12.143090 6.192273 6.868572 -2.353196 -7.528503 21.162979 0.000000 0.000000 0.000000 7.602480 -15.158850 11.441287 -8.227788 -9.352042 8.830144 -0.884316 3.720851 14.731859 7.616038 15.086474 11.124477 0.000000 0.000000 0.000000 1.579086 -7.400941 9.754985 1.648212 14.949073 -15.651921 -3.851597 -3.599085 4.134063 0.103176 0.065130 -0.074063 -3.558688 -2.005680 4.436630 -2.400186 11.401924 19.782132 0.000000 0.000000 0.000000 -2.016208 -1.080063 0.568178 18.312210 5.732994 1.742144 -1.282164 15.452352 -6.358825 -16.799012 -60.332796 14.262450 0.000000 0.000000 0.000000 -6.486569 -0.299400 0.312153 24.031035 2.756870 2.068161 36.951877 -19.834869 22.492098 -16.036924 55.877255 -9.760679 0.000000 0.000000 0.000000 
-31.177877 34.691090 83.408211 5.625482 84.904797 5.610374 -1.888200 -13.862508 15.625053 -22.371120 -0.082038 -41.398644 13.356642 6.023319 8.921724 -2.554172 -8.864544 21.313125 0.000000 0.000000 0.000000 7.214730 -15.102716 11.720600 -9.776321 -10.217861 10.067130 -0.715730 3.484829 16.601229 9.872517 15.923329 13.378327 0.000000 0.000000 0.000000 1.257211 -7.448136 9.813982 0.896973 14.978002 -15.707926 -3.779708 -3.728862 4.035429 0.089099 0.038334 -0.028632 -3.529296 -2.226893 4.331814 -1.717653 11.098554 19.649488 0.000000 0.000000 0.000000 -1.923526 -1.271546 0.480163 19.341687 6.503050 1.698287 -2.306791 15.939080 -9.179837 -17.456434 -60.979219 14.387915 0.000000 0.000000 0.000000 -6.308951 -0.496715 0.189573 24.200567 2.682793 1.687973 37.353137 -18.917940 23.922598 -16.274888 55.667025 -10.594779 0.000000 0.000000 0.000000 
-29.670521 34.631096 83.703590 4.956510 86.838076 4.923473 -1.567004 -13.759739 16.114725 -21.964044 -1.883797 -39.306342 13.480140 3.837156 10.502799 -2.877390 -9.028448 20.612080 0.000000 0.000000 0.000000 6.920171 -15.078732 12.149543 -11.753028 -11.456955 10.733396 -0.889274 3.095802 19.413535 10.958141 16.176309 15.428234 0.000000 0.000000 0.000000 1.082764 -7.382304 10.012233 0.342435 14.846683 -15.690208 -3.621126 -3.795619 3.945428 0.023327 0.051728 -0.042101 -3.356477 -2.237188 4.206649 -1.185794 10.949052 19.413278 0.000000 0.000000 0.000000 -1.738207 -1.398594 0.357620 19.985284 6.730143 1.746317 -3.549434 16.355737 -11.533540 -17.816574 -61.323105 14.258557 0.000000 0.000000 0.000000 -6.103648 -0.619581 0.080684 24.182001 2.568913 1.296801 37.924642 -19.027466 25.104493 -16.181044 55.484772 -10.999977 0.000000 0.000000 0.000000 
-28.198542 34.635345 83.900276 8.425274 88.806461 8.450727 -1.286826 -13.654957 16.547108 -21.730250 -4.468845 -37.355855 13.547669 2.501802 12.364906 -2.898429 -9.870887 19.324019 0.000000 0.000000 0.000000 6.433061 -14.603255 12.768443 -13.785629 -12.259696 9.996499 -1.498476 1.797661 24.055061 11.018666 16.326748 16.537302 0.000000 0.000000 0.000000 0.895162 -7.265236 10.101204 -0.056564 14.598259 -15.709864 -3.415687 -3.813684 3.826170 0.016523 0.066219 0.013837 -3.190195 -2.489088 4.072119 -0.966251 10.763953 19.128944 0.000000 0.000000 0.000000 -1.600580 -1.573891 0.295205 20.123155 6.311629 1.658799 -4.604234 16.541074 -12.685805 -17.761685 -61.477044 14.209419 0.000000 0.000000 0.000000 -5.883029 -0.809946 -0.024810 23.871475 2.349429 1.040097 38.658430 -19.995635 25.814572 -15.956543 55.175477 -11.103486 0.000000 0.000000 0.000000 
-26.758057 34.694580 84.004982 179.736428 89.197892 179.763353 -1.072551 -12.886399 16.607470 -21.830077 -6.791630 -36.211470 14.212214 4.585690 14.752333 -1.670130 -10.192319 19.012513 0.000000 0.000000 0.000000 6.105616 -14.505198 13.012155 -15.317937 -13.071179 6.894177 -2.934180 0.520194 31.925984 8.448848 15.466716 14.472307 0.000000 0.000000 0.000000 0.891158 -7.231190 10.155065 -0.166543 14.287149 -15.705238 -3.235605 -3.893744 3.778239 -0.011917 -0.021219 0.006010 -3.070701 -2.416518 4.094943 -0.988088 10.586441 18.768617 0.000000 0.000000 0.000000 -1.514666 -1.565859 0.354149 19.905622 5.461128 1.580505 -5.103910 16.607917 -12.594840 -17.244607 -61.538905 13.988298 0.000000 0.000000 0.000000 -5.661282 -0.833740 0.040349 23.293880 2.204910 0.819715 39.430112 -21.563355 26.227450 -15.845083 54.970206 -11.304937 0.000000 0.000000 0.000000 
-25.358570 34.789406 84.105820 -179.382173 87.823542 -179.478315 -0.944171 -12.310114 16.278475 -21.958338 -8.758908 -33.955510 15.179325 8.297120 16.813650 -0.559258 -10.642960 18.011100 0.000000 0.000000 0.000000 5.606141 -14.051627 13.282901 -15.537161 -13.326347 2.201949 -3.645798 0.579184 38.962029 6.129022 14.864104 11.991189 0.000000 0.000000 0.000000 0.761665 -7.103578 10.092830 -0.062332 13.968464 -15.469847 -2.984466 -3.823972 3.811246 -0.006303 -0.028660 0.014789 -2.899022 -2.379464 4.138299 -1.196709 10.395547 18.401957 0.000000 0.000000 0.000000 -1.416294 -1.504461 0.421214 19.442589 4.198418 1.535789 -5.033531 16.684156 -10.900198 -16.672260 -61.651145 14.000437 0.000000 0.000000 0.000000 -5.457879 -0.779103 0.102883 22.343934 2.062418 0.576387 40.355947 -23.448791 25.897788 -15.500242 54.905487 -11.099105 0.000000 0.000000 0.000000 
-23.999475 34.937057 84.243332 -179.980553 86.672157 179.991413 -1.134268 -11.950913 16.087358 -21.883788 -10.747649 -30.868989 15.583244 6.746658 16.972293 0.424549 -10.986736 16.382277 0.000000 0.000000 0.000000 5.128506 -13.397723 13.140788 -15.058276 -13.154018 -3.281338 -3.514698 1.309605 43.673350 5.483566 15.511833 11.455952 0.000000 0.000000 0.000000 0.609144 -6.823064 9.758492 0.225304 13.533859 -15.159815 -2.717888 -3.689494 3.924197 -0.017944 -0.012174 0.016466 -2.627385 -2.329173 4.258466 -1.547052 10.178937 18.125514 0.000000 0.000000 0.000000 -1.192640 -1.355089 0.546587 18.908940 2.677638 1.531176 -4.425784 16.810055 -7.814918 -15.852376 -61.717712 13.944057 0.000000 0.000000 0.000000 -5.181797 -0.663662 0.213718 21.214084 1.885271 0.362740 41.227053 -25.477685 25.197536 -14.983999 54.941017 -10.707859 0.000000 0.000000 0.000000 
-22.667418 35.123695 84.385216 178.450863 85.450072 178.245753 -1.642905 -11.407142 15.981946 -21.378863 -13.039386 -27.499356 15.715673 5.393271 17.154655 1.421011 -10.595118 14.610673 0.000000 0.000000 0.000000 4.509568 -12.557725 13.077341 -14.001729 -12.546591 -8.888634 -3.456307 2.200380 46.050607 5.117632 16.015247 10.986172 0.000000 0.000000 0.000000 0.359999 -6.343774 9.562444 0.669340 12.908398 -14.661057 -2.397226 -3.556320 4.133893 -0.003974 -0.032897 -0.074637 -2.275813 -2.182310 4.435670 -1.935360 10.031022 17.906154 0.000000 0.000000 0.000000 -0.932425 -1.176968 0.723568 18.253674 1.070389 1.566357 -3.427521 17.037349 -4.084140 -14.888856 -61.669614 13.836807 0.000000 0.000000 0.000000 -4.873098 -0.539142 0.374396 20.113951 1.598091 0.188733 41.993082 -27.525717 24.297619 -14.361226 55.059999 -10.205821 0.000000 0.000000 0.000000 
-21.360083 35.327011 84.543930 -179.552300 84.464592 -179.709353 -1.940709 -10.506825 15.782539 -20.821429 -14.516459 -24.242809 15.613483 4.445162 17.093298 2.014544 -10.163558 12.903007 0.000000 0.000000 0.000000 4.302168 -11.188234 12.896479 -12.602397 -11.222929 -14.057392 -3.622016 2.805514 45.251048 5.289585 16.148480 11.238888 0.000000 0.000000 0.000000 0.231732 -5.596623 9.350316 1.275567 12.203299 -14.223239 -1.957467 -3.435140 4.203064 0.006659 -0.005377 -0.077003 -1.927517 -1.927577 4.655048 -2.414973 9.854994 17.720919 0.000000 0.000000 0.000000 -0.657900 -1.016952 0.919180 17.449926 -0.396900 1.685740 -2.295126 17.373189 -0.571802 -13.763294 -61.351252 13.571547 0.000000 0.000000 0.000000 -4.548877 -0.343844 0.622361 19.094672 1.206746 -0.025171 42.797730 -29.610800 23.321575 -13.757685 55.230112 -9.745783 0.000000 0.000000 0.000000 
